<svg id="Capa_1" data-name="Capa 1" xmlns="http://www.w3.org/2000/svg" viewBox="0 0 135 135"><defs><style>.cls-1{fill:#F18805;}.cls-2{fill:#fff;}</style></defs><title>facebook</title><path class="cls-1" d="M365.33,421.1a67.5,67.5,0,1,0-78.05,66.68V440.61H270.14V421.1h17.14V406.23c0-16.92,10.08-26.26,25.49-26.26a103.59,103.59,0,0,1,15.11,1.32V397.9h-8.51c-8.38,0-11,5.2-11,10.54V421.1h18.72l-3,19.51H308.37v47.17A67.52,67.52,0,0,0,365.33,421.1Z" transform="translate(-230.33 -353.6)"/><path class="cls-2" d="M324.1,440.61l3-19.51H308.37V408.44c0-5.34,2.62-10.54,11-10.54h8.51V381.29A103.59,103.59,0,0,0,312.77,380c-15.41,0-25.49,9.34-25.49,26.26V421.1H270.14v19.51h17.14v47.17a68.21,68.21,0,0,0,21.09,0V440.61Z" transform="translate(-230.33 -353.6)"/></svg>