<svg width="40" height="40" viewBox="0 0 40 40" fill="none" xmlns="http://www.w3.org/2000/svg">
<circle cx="20" cy="20" r="20" fill="#0E1428"/>
<path d="M20 11C17.2863 11 16.945 11.0122 15.8787 11.0584C14.8125 11.1072 14.0863 11.2703 13.45 11.5114C12.7826 11.756 12.1781 12.1396 11.6788 12.6354C11.1701 13.1221 10.7764 13.7109 10.525 14.3608C10.2775 14.9794 10.1088 15.6881 10.06 16.7232C10.0125 17.7643 10 18.0955 10 20.7428C10 23.3876 10.0125 23.7188 10.06 24.7575C10.11 25.795 10.2775 26.5024 10.525 27.1223C10.7812 27.7628 11.1225 28.3059 11.6788 28.8477C12.2338 29.3896 12.7912 29.7232 13.4488 29.9717C14.0862 30.2128 14.8112 30.3771 15.8762 30.4246C16.9437 30.4709 17.2838 30.4831 20 30.4831C22.7162 30.4831 23.055 30.4709 24.1225 30.4246C25.1863 30.3759 25.915 30.2128 26.5513 29.9717C27.2182 29.727 27.8223 29.3434 28.3213 28.8477C28.8775 28.3059 29.2188 27.7628 29.475 27.1223C29.7213 26.5024 29.89 25.795 29.94 24.7575C29.9875 23.7188 30 23.3876 30 20.7415C30 18.0955 29.9875 17.7643 29.94 16.7244C29.89 15.6881 29.7213 14.9794 29.475 14.3608C29.2236 13.7109 28.83 13.122 28.3213 12.6354C27.8221 12.1394 27.2175 11.7558 26.55 11.5114C25.9125 11.2703 25.185 11.1059 24.1213 11.0584C23.0538 11.0122 22.715 11 19.9975 11H20.0013H20ZM19.1038 12.7559H20.0013C22.6713 12.7559 22.9875 12.7644 24.0413 12.8119C25.0163 12.8545 25.5463 13.0141 25.8988 13.1468C26.365 13.3234 26.6987 13.5352 27.0487 13.8762C27.3988 14.2171 27.615 14.5411 27.7962 14.9965C27.9338 15.3386 28.0962 15.8549 28.14 16.8047C28.1887 17.8313 28.1987 18.1393 28.1987 20.7391C28.1987 23.3389 28.1887 23.6482 28.14 24.6747C28.0962 25.6245 27.9325 26.1396 27.7962 26.483C27.636 26.9059 27.3801 27.2884 27.0475 27.602C26.6975 27.943 26.365 28.1536 25.8975 28.3302C25.5475 28.4642 25.0175 28.6225 24.0413 28.6663C22.9875 28.7126 22.6713 28.7235 20.0013 28.7235C17.3313 28.7235 17.0138 28.7126 15.96 28.6663C14.985 28.6225 14.4563 28.4642 14.1038 28.3302C13.6694 28.1742 13.2764 27.9254 12.9537 27.602C12.6209 27.2879 12.3647 26.9051 12.2037 26.4817C12.0675 26.1396 11.9038 25.6233 11.86 24.6735C11.8125 23.647 11.8025 23.3389 11.8025 20.7367C11.8025 18.1357 11.8125 17.8288 11.86 16.8023C11.905 15.8525 12.0675 15.3362 12.205 14.9928C12.3863 14.5386 12.6037 14.2135 12.9537 13.8725C13.3037 13.5316 13.6363 13.3209 14.1038 13.1444C14.4563 13.0104 14.985 12.8521 15.96 12.8083C16.8825 12.7669 17.24 12.7547 19.1038 12.7535V12.7559ZM25.3387 14.373C25.1811 14.373 25.0251 14.4032 24.8795 14.462C24.7339 14.5207 24.6017 14.6068 24.4902 14.7154C24.3788 14.8239 24.2904 14.9528 24.2301 15.0946C24.1698 15.2365 24.1388 15.3885 24.1388 15.542C24.1388 15.6955 24.1698 15.8475 24.2301 15.9893C24.2904 16.1312 24.3788 16.26 24.4902 16.3686C24.6017 16.4771 24.7339 16.5632 24.8795 16.622C25.0251 16.6807 25.1811 16.711 25.3387 16.711C25.657 16.711 25.9622 16.5878 26.1873 16.3686C26.4123 16.1494 26.5387 15.852 26.5387 15.542C26.5387 15.232 26.4123 14.9346 26.1873 14.7154C25.9622 14.4962 25.657 14.373 25.3387 14.373ZM20.0013 15.7393C19.3201 15.7289 18.6436 15.8507 18.0112 16.0975C17.3788 16.3442 16.8031 16.7111 16.3177 17.1767C15.8323 17.6422 15.4467 18.1972 15.1835 18.8094C14.9204 19.4215 14.7849 20.0785 14.7849 20.7421C14.7849 21.4058 14.9204 22.0628 15.1835 22.6749C15.4467 23.2871 15.8323 23.8421 16.3177 24.3076C16.8031 24.7732 17.3788 25.1401 18.0112 25.3868C18.6436 25.6336 19.3201 25.7554 20.0013 25.745C21.3495 25.7245 22.6353 25.1885 23.5812 24.2524C24.5272 23.3165 25.0574 22.0556 25.0574 20.7421C25.0574 19.4287 24.5272 18.1678 23.5812 17.2319C22.6353 16.2958 21.3495 15.7598 20.0013 15.7393ZM20.0013 17.494C20.8854 17.494 21.7333 17.8361 22.3586 18.4452C22.9838 19.0542 23.335 19.8802 23.335 20.7415C23.335 21.6028 22.9838 22.4289 22.3586 23.0379C21.7333 23.647 20.8854 23.9891 20.0013 23.9891C19.1171 23.9891 18.2691 23.647 17.6439 23.0379C17.0188 22.4289 16.6675 21.6028 16.6675 20.7415C16.6675 19.8802 17.0188 19.0542 17.6439 18.4452C18.2691 17.8361 19.1171 17.494 20.0013 17.494Z" fill="#FAF9F9"/>
</svg>
