<svg id="Capa_1" data-name="Capa 1" xmlns="http://www.w3.org/2000/svg" viewBox="0 0 135 135"><defs><style>.cls-1{fill:#F18805;}.cls-2{fill:#fff;}</style></defs><title>instagram</title><circle class="cls-1" cx="67.5" cy="67.5" r="67.5"/><path class="cls-2" d="M297.83,386.26c11.34,0,12.69,0,17.17.25a23.64,23.64,0,0,1,7.89,1.46A14.07,14.07,0,0,1,331,396a23.52,23.52,0,0,1,1.46,7.89c.21,4.48.25,5.82.25,17.17s0,12.69-.25,17.18a23.64,23.64,0,0,1-1.46,7.89,14.09,14.09,0,0,1-8.07,8.06A23.57,23.57,0,0,1,315,455.7c-4.48.2-5.83.24-17.17.24s-12.7,0-17.18-.24a23.57,23.57,0,0,1-7.89-1.47,14.09,14.09,0,0,1-8.07-8.06,23.64,23.64,0,0,1-1.46-7.89c-.2-4.49-.25-5.83-.25-17.18s0-12.69.25-17.17a23.52,23.52,0,0,1,1.46-7.89,13.36,13.36,0,0,1,3.18-4.89,13.19,13.19,0,0,1,4.89-3.18,23.64,23.64,0,0,1,7.89-1.46c4.48-.21,5.83-.25,17.18-.25m0-7.66c-11.55,0-13,0-17.53.26a31,31,0,0,0-10.31,2,21.7,21.7,0,0,0-12.43,12.43,31.37,31.37,0,0,0-2,10.32c-.21,4.53-.25,6-.25,17.52s0,13,.25,17.52a31.26,31.26,0,0,0,2,10.32A21.7,21.7,0,0,0,270,461.37a31.25,31.25,0,0,0,10.31,2c4.54.2,6,.25,17.53.25s13-.05,17.52-.25a31.37,31.37,0,0,0,10.32-2,20.9,20.9,0,0,0,7.52-4.9,20.59,20.59,0,0,0,4.9-7.53,31,31,0,0,0,2-10.32c.21-4.53.26-6,.26-17.52s-.05-13-.26-17.52a31.11,31.11,0,0,0-2-10.32,21.72,21.72,0,0,0-12.42-12.43,31.14,31.14,0,0,0-10.32-2c-4.53-.21-6-.26-17.52-.26Z" transform="translate(-230.33 -353.6)"/><path class="cls-2" d="M297.83,399.28a21.83,21.83,0,1,0,21.82,21.82A21.82,21.82,0,0,0,297.83,399.28Zm0,36A14.17,14.17,0,1,1,312,421.1,14.16,14.16,0,0,1,297.83,435.27Z" transform="translate(-230.33 -353.6)"/><circle class="cls-2" cx="90.19" cy="44.81" r="5.1"/></svg>