<svg width="40" height="40" viewBox="0 0 40 40" fill="none" xmlns="http://www.w3.org/2000/svg">
<circle cx="20" cy="20" r="20" fill="#0E1428"/>
<path d="M11.1667 27.1667L17 20.1667M29.8333 27.1667L24 20.1667M10 15.5L18.4292 21.1194C19.1776 21.6183 19.5517 21.8679 19.9562 21.9647C20.3137 22.0505 20.6863 22.0505 21.0438 21.9647C21.4483 21.8679 21.8224 21.6183 22.5708 21.1194L31 15.5M13.7333 28.3333H27.2667C28.5734 28.3333 29.2269 28.3333 29.726 28.079C30.165 27.8553 30.522 27.4984 30.7457 27.0593C31 26.5602 31 25.9068 31 24.6V15.7333C31 14.4265 31 13.7731 30.7457 13.274C30.522 12.835 30.165 12.478 29.726 12.2543C29.2269 12 28.5734 12 27.2667 12H13.7333C12.4265 12 11.7731 12 11.274 12.2543C10.835 12.478 10.478 12.835 10.2543 13.274C10 13.7731 10 14.4265 10 15.7333V24.6C10 25.9068 10 26.5602 10.2543 27.0593C10.478 27.4984 10.835 27.8553 11.274 28.079C11.7731 28.3333 12.4265 28.3333 13.7333 28.3333Z" stroke="#FAF9F9" stroke-width="2" stroke-linecap="round" stroke-linejoin="round"/>
</svg>
