<svg width="40" height="40" viewBox="0 0 40 40" fill="none" xmlns="http://www.w3.org/2000/svg">
<circle cx="20" cy="20" r="20" fill="#0E1428"/>
<path d="M27.0012 12.8324C26.0843 11.9309 24.9924 11.2162 23.7891 10.7299C22.5858 10.2437 21.2952 9.99556 19.9924 10.0001C14.5337 10.0001 10.085 14.3326 10.08 19.6515C10.08 21.355 10.5375 23.0123 11.4012 24.4796L10 29.4831L15.255 28.1412C16.7088 28.9119 18.3374 29.3159 19.9924 29.3163H19.9974C25.4574 29.3163 29.905 24.9837 29.91 19.66C29.9112 18.3912 29.6547 17.1347 29.1553 15.9629C28.6558 14.7911 27.9246 13.7272 27.0012 12.8324ZM19.9924 27.6821C18.5162 27.6826 17.0671 27.2956 15.7975 26.5618L15.4975 26.3865L12.38 27.1829L13.2125 24.2202L13.0175 23.9146C12.1922 22.6364 11.7558 21.1566 11.7587 19.6466C11.7587 15.2313 15.455 11.6293 19.9974 11.6293C21.0796 11.6274 22.1515 11.8342 23.1512 12.2378C24.151 12.6414 25.0588 13.2337 25.8224 13.9807C26.5887 14.7248 27.1962 15.6093 27.6098 16.5832C28.0235 17.5571 28.2351 18.6011 28.2325 19.6551C28.2275 24.0863 24.5312 27.6821 19.9924 27.6821ZM24.5112 21.6741C24.2649 21.5535 23.0487 20.9702 22.82 20.8874C22.5925 20.8083 22.4262 20.7669 22.2637 21.008C22.0974 21.2479 21.6224 21.7946 21.4799 21.9517C21.3375 22.1136 21.1899 22.1319 20.9424 22.0125C20.6962 21.8908 19.8974 21.6375 18.9524 20.8132C18.215 20.1739 17.7213 19.3824 17.5738 19.1425C17.4313 18.9014 17.56 18.7723 17.6838 18.6518C17.7925 18.5446 17.93 18.3693 18.0538 18.2304C18.1787 18.0916 18.2199 17.9893 18.3012 17.8286C18.3825 17.6654 18.3437 17.5266 18.2824 17.4061C18.2199 17.2855 17.7262 16.0958 17.5175 15.616C17.3175 15.1424 17.1137 15.2081 16.9612 15.202C16.8187 15.1935 16.6525 15.1935 16.4862 15.1935C16.3607 15.1965 16.2372 15.2248 16.1234 15.2766C16.0096 15.3283 15.908 15.4025 15.825 15.4943C15.5975 15.7354 14.9612 16.3187 14.9612 17.5083C14.9612 18.698 15.8488 19.8414 15.9738 20.0034C16.0963 20.1653 17.7162 22.5995 20.2024 23.6467C20.7899 23.8963 21.2524 24.0437 21.6137 24.1557C22.2074 24.3408 22.7437 24.3128 23.1712 24.2531C23.6462 24.1825 24.635 23.6686 24.8437 23.1048C25.0487 22.5398 25.0487 22.0576 24.9862 21.9565C24.925 21.8543 24.7587 21.7946 24.5112 21.6741Z" fill="#FAF9F9"/>
</svg>
