<svg width="1025" height="287" viewBox="0 0 1025 287" fill="none" xmlns="http://www.w3.org/2000/svg">
<path fill-rule="evenodd" clip-rule="evenodd" d="M1 184C1 184 69 219.36 169 248C269 276.64 332.62 290.639 439 286C571.909 280.204 607 224 767 194C851.949 178.072 928.625 194.96 985 212L1026 224V0H968.771C912.396 0 797.938 0 684.333 0C570.729 0 456.271 0 342.667 0C229.063 0 114.604 0 58.2292 0H1V184Z" fill="#F18805"/>
<path opacity="0.7" fill-rule="evenodd" clip-rule="evenodd" d="M0 215.141C0 215.141 53 236.783 95 249.6C137 262.417 179.396 276 293 276C406.604 276 485 229.971 647 215.141C760.604 204.741 911.396 218.4 967.771 234L1025 249.6V0H967.771C911.396 0 796.938 0 683.333 0C569.729 0 455.271 0 341.667 0C228.063 0 113.604 0 57.2292 0H0V215.141Z" fill="#F18805"/>
</svg>
