<svg width="1025" height="317" viewBox="0 0 1025 317" fill="none" xmlns="http://www.w3.org/2000/svg">
<path fill-rule="evenodd" clip-rule="evenodd" d="M1 203.233C1 203.233 69 242.29 169 273.923C269 305.557 332.62 321.02 439 315.895C571.909 309.494 607 247.415 767 214.279C851.949 196.686 928.625 215.339 985 234.16L1026 247.415V0H968.771C912.396 0 797.938 0 684.333 0C570.729 0 456.271 0 342.667 0C229.063 0 114.604 0 58.2292 0H1V203.233Z" fill="#F18805"/>
<path opacity="0.7" fill-rule="evenodd" clip-rule="evenodd" d="M0 247.1C0 247.1 53 271.957 95 286.678C137 301.399 179.396 317 293 317C406.604 317 485 264.134 647 247.1C760.604 235.155 911.396 250.843 967.771 268.761L1025 286.678V0H967.771C911.396 0 796.938 0 683.333 0C569.729 0 455.271 0 341.667 0C228.063 0 113.604 0 57.2292 0H0V247.1Z" fill="#F18805"/>
</svg>
