<svg id="Capa_1" data-name="Capa 1" xmlns="http://www.w3.org/2000/svg" viewBox="0 0 135 135"><defs><style>.cls-1{fill:#F18805;}.cls-2{fill:#fff;fill-rule:evenodd;}</style></defs><title>whatsapp</title><circle class="cls-1" cx="67.5" cy="67.5" r="67.5"/><g id="WA_Logo" data-name="WA Logo"><path class="cls-2" d="M330.3,389.46a42.83,42.83,0,0,0-67.4,51.65l-6.07,22.18,22.7-6A42.74,42.74,0,0,0,300,462.55h0a42.82,42.82,0,0,0,30.29-73.09ZM300,455.32h0a35.43,35.43,0,0,1-18.11-5l-1.3-.77-13.47,3.53L270.7,440l-.84-1.35A35.59,35.59,0,1,1,300,455.32Zm19.52-26.64c-1.07-.54-6.33-3.13-7.31-3.48s-1.7-.54-2.41.53-2.76,3.48-3.39,4.2-1.25.8-2.32.26a29,29,0,0,1-8.6-5.31,31.79,31.79,0,0,1-5.95-7.41c-.63-1.07-.07-1.65.47-2.18s1.07-1.25,1.6-1.87a7,7,0,0,0,1.07-1.79,2,2,0,0,0-.09-1.87c-.26-.54-2.4-5.8-3.3-7.94s-1.75-1.81-2.4-1.84-1.34,0-2,0a3.94,3.94,0,0,0-2.86,1.34,12,12,0,0,0-3.74,8.93c0,5.26,3.83,10.35,4.37,11.06s7.54,11.52,18.27,16.15a62.16,62.16,0,0,0,6.1,2.25,14.68,14.68,0,0,0,6.74.43c2.06-.31,6.33-2.59,7.22-5.09s.9-4.64.63-5.08S320.6,429.21,319.53,428.68Z" transform="translate(-230.33 -353.6)"/></g></svg>